ISO-10303-21;
HEADER;
/* Generated by software containing ST-Developer
 * from STEP Tools, Inc. (www.steptools.com) 
 */
/* OPTION: strings as raw bytes, not using required /X/ escapes */

FILE_DESCRIPTION(
/* description */ ('Unknown'),
/* implementation_level */ '2;1');

FILE_NAME(
/* name */ 'VPZL-275UCEU',
/* time_stamp */ '2018-01-03T11:35:23-05:00',
/* author */ ('Unknown'),
/* organization */ ('Unknown'),
/* preprocessor_version */ 'ST-DEVELOPER v16.7',
/* originating_system */ 'DEX',
/* authorisation */ $);

FILE_SCHEMA (('AUTOMOTIVE_DESIGN {1 0 10303 214 3 1 1}'));
ENDSEC;

DATA;
#10=PROPERTY_DEFINITION_REPRESENTATION(#14,#12);
#11=PROPERTY_DEFINITION_REPRESENTATION(#15,#13);
#12=REPRESENTATION('',(#16),#1491);
#13=REPRESENTATION('',(#17),#1491);
#14=PROPERTY_DEFINITION('pmi validation property','',#1499);
#15=PROPERTY_DEFINITION('pmi validation property','',#1499);
#16=VALUE_REPRESENTATION_ITEM('number of annotations',COUNT_MEASURE(0.));
#17=VALUE_REPRESENTATION_ITEM('number of views',COUNT_MEASURE(0.));
#18=SHAPE_REPRESENTATION_RELATIONSHIP('','',#988,#19);
#19=ADVANCED_BREP_SHAPE_REPRESENTATION('',(#986),#1491);
#20=TOROIDAL_SURFACE('',#1090,0.5665,0.00400000000000003);
#21=CONICAL_SURFACE('',#1034,1.375,0.78539816339745);
#22=CONICAL_SURFACE('',#1074,0.951,1.37492748331608);
#23=CONICAL_SURFACE('',#1078,1.375,0.78539816339745);
#24=CONICAL_SURFACE('',#1089,1.375,0.785398163397448);
#25=LINE('',#1384,#41);
#26=LINE('',#1387,#42);
#27=LINE('',#1388,#43);
#28=LINE('',#1390,#44);
#29=LINE('',#1392,#45);
#30=LINE('',#1395,#46);
#31=LINE('',#1397,#47);
#32=LINE('',#1398,#48);
#33=LINE('',#1404,#49);
#34=LINE('',#1406,#50);
#35=LINE('',#1408,#51);
#36=LINE('',#1409,#52);
#37=LINE('',#1411,#53);
#38=LINE('',#1414,#54);
#39=LINE('',#1416,#55);
#40=LINE('',#1417,#56);
#41=VECTOR('',#1179,39.3700787401575);
#42=VECTOR('',#1180,39.3700787401575);
#43=VECTOR('',#1181,39.3700787401575);
#44=VECTOR('',#1182,39.3700787401575);
#45=VECTOR('',#1185,39.3700787401575);
#46=VECTOR('',#1186,39.3700787401575);
#47=VECTOR('',#1187,39.3700787401575);
#48=VECTOR('',#1188,39.3700787401575);
#49=VECTOR('',#1195,39.3700787401575);
#50=VECTOR('',#1198,39.3700787401575);
#51=VECTOR('',#1199,39.3700787401575);
#52=VECTOR('',#1200,39.3700787401575);
#53=VECTOR('',#1203,39.3700787401575);
#54=VECTOR('',#1204,39.3700787401575);
#55=VECTOR('',#1205,39.3700787401575);
#56=VECTOR('',#1206,39.3700787401575);
#57=CYLINDRICAL_SURFACE('',#1022,1.375);
#58=CYLINDRICAL_SURFACE('',#1027,1.375);
#59=CYLINDRICAL_SURFACE('',#1062,0.4625);
#60=CYLINDRICAL_SURFACE('',#1063,0.5625);
#61=CYLINDRICAL_SURFACE('',#1065,0.75);
#62=CYLINDRICAL_SURFACE('',#1066,0.7525);
#63=CYLINDRICAL_SURFACE('',#1067,0.657);
#64=CYLINDRICAL_SURFACE('',#1068,0.7075);
#65=CYLINDRICAL_SURFACE('',#1069,0.7675);
#66=CYLINDRICAL_SURFACE('',#1070,0.4625);
#67=CYLINDRICAL_SURFACE('',#1071,0.825);
#68=CYLINDRICAL_SURFACE('',#1073,0.7725);
#69=CYLINDRICAL_SURFACE('',#1076,0.951);
#70=CYLINDRICAL_SURFACE('',#1077,0.685);
#71=CYLINDRICAL_SURFACE('',#1080,1.375);
#72=CYLINDRICAL_SURFACE('',#1082,0.1325);
#73=CYLINDRICAL_SURFACE('',#1083,0.1325);
#74=CYLINDRICAL_SURFACE('',#1084,0.1325);
#75=CYLINDRICAL_SURFACE('',#1085,0.1325);
#76=CYLINDRICAL_SURFACE('',#1086,0.1325);
#77=CYLINDRICAL_SURFACE('',#1087,0.1325);
#78=CYLINDRICAL_SURFACE('',#1088,0.7825);
#79=ORIENTED_EDGE('',*,*,#221,.T.);
#80=ORIENTED_EDGE('',*,*,#222,.T.);
#81=ORIENTED_EDGE('',*,*,#223,.F.);
#82=ORIENTED_EDGE('',*,*,#224,.T.);
#83=ORIENTED_EDGE('',*,*,#225,.T.);
#84=ORIENTED_EDGE('',*,*,#226,.F.);
#85=ORIENTED_EDGE('',*,*,#227,.T.);
#86=ORIENTED_EDGE('',*,*,#228,.T.);
#87=ORIENTED_EDGE('',*,*,#229,.T.);
#88=ORIENTED_EDGE('',*,*,#230,.T.);
#89=ORIENTED_EDGE('',*,*,#231,.T.);
#90=ORIENTED_EDGE('',*,*,#232,.F.);
#91=ORIENTED_EDGE('',*,*,#233,.T.);
#92=ORIENTED_EDGE('',*,*,#234,.T.);
#93=ORIENTED_EDGE('',*,*,#235,.T.);
#94=ORIENTED_EDGE('',*,*,#236,.T.);
#95=ORIENTED_EDGE('',*,*,#237,.T.);
#96=ORIENTED_EDGE('',*,*,#238,.T.);
#97=ORIENTED_EDGE('',*,*,#239,.F.);
#98=ORIENTED_EDGE('',*,*,#240,.T.);
#99=ORIENTED_EDGE('',*,*,#241,.F.);
#100=ORIENTED_EDGE('',*,*,#242,.T.);
#101=ORIENTED_EDGE('',*,*,#243,.F.);
#102=ORIENTED_EDGE('',*,*,#244,.F.);
#103=ORIENTED_EDGE('',*,*,#245,.T.);
#104=ORIENTED_EDGE('',*,*,#246,.T.);
#105=ORIENTED_EDGE('',*,*,#247,.F.);
#106=ORIENTED_EDGE('',*,*,#248,.F.);
#107=ORIENTED_EDGE('',*,*,#249,.T.);
#108=ORIENTED_EDGE('',*,*,#250,.F.);
#109=ORIENTED_EDGE('',*,*,#251,.T.);
#110=ORIENTED_EDGE('',*,*,#244,.T.);
#111=ORIENTED_EDGE('',*,*,#252,.F.);
#112=ORIENTED_EDGE('',*,*,#253,.T.);
#113=ORIENTED_EDGE('',*,*,#254,.F.);
#114=ORIENTED_EDGE('',*,*,#255,.F.);
#115=ORIENTED_EDGE('',*,*,#256,.F.);
#116=ORIENTED_EDGE('',*,*,#242,.F.);
#117=ORIENTED_EDGE('',*,*,#257,.F.);
#118=ORIENTED_EDGE('',*,*,#258,.F.);
#119=ORIENTED_EDGE('',*,*,#255,.T.);
#120=ORIENTED_EDGE('',*,*,#259,.F.);
#121=ORIENTED_EDGE('',*,*,#260,.F.);
#122=ORIENTED_EDGE('',*,*,#261,.F.);
#123=ORIENTED_EDGE('',*,*,#262,.T.);
#124=ORIENTED_EDGE('',*,*,#248,.T.);
#125=ORIENTED_EDGE('',*,*,#263,.F.);
#126=ORIENTED_EDGE('',*,*,#260,.T.);
#127=ORIENTED_EDGE('',*,*,#264,.F.);
#128=ORIENTED_EDGE('',*,*,#265,.F.);
#129=ORIENTED_EDGE('',*,*,#266,.F.);
#130=ORIENTED_EDGE('',*,*,#246,.F.);
#131=ORIENTED_EDGE('',*,*,#267,.F.);
#132=ORIENTED_EDGE('',*,*,#261,.T.);
#133=ORIENTED_EDGE('',*,*,#259,.T.);
#134=ORIENTED_EDGE('',*,*,#254,.T.);
#135=ORIENTED_EDGE('',*,*,#268,.T.);
#136=ORIENTED_EDGE('',*,*,#269,.T.);
#137=ORIENTED_EDGE('',*,*,#270,.T.);
#138=ORIENTED_EDGE('',*,*,#271,.T.);
#139=ORIENTED_EDGE('',*,*,#272,.T.);
#140=ORIENTED_EDGE('',*,*,#273,.T.);
#141=ORIENTED_EDGE('',*,*,#274,.T.);
#142=ORIENTED_EDGE('',*,*,#264,.T.);
#143=ORIENTED_EDGE('',*,*,#275,.T.);
#144=ORIENTED_EDGE('',*,*,#250,.T.);
#145=ORIENTED_EDGE('',*,*,#276,.T.);
#146=ORIENTED_EDGE('',*,*,#277,.T.);
#147=ORIENTED_EDGE('',*,*,#278,.T.);
#148=ORIENTED_EDGE('',*,*,#279,.T.);
#149=ORIENTED_EDGE('',*,*,#280,.T.);
#150=ORIENTED_EDGE('',*,*,#281,.T.);
#151=ORIENTED_EDGE('',*,*,#282,.T.);
#152=ORIENTED_EDGE('',*,*,#283,.T.);
#153=ORIENTED_EDGE('',*,*,#284,.T.);
#154=ORIENTED_EDGE('',*,*,#285,.T.);
#155=ORIENTED_EDGE('',*,*,#286,.T.);
#156=ORIENTED_EDGE('',*,*,#221,.F.);
#157=ORIENTED_EDGE('',*,*,#222,.F.);
#158=ORIENTED_EDGE('',*,*,#287,.T.);
#159=ORIENTED_EDGE('',*,*,#223,.T.);
#160=ORIENTED_EDGE('',*,*,#228,.F.);
#161=ORIENTED_EDGE('',*,*,#226,.T.);
#162=ORIENTED_EDGE('',*,*,#230,.F.);
#163=ORIENTED_EDGE('',*,*,#227,.F.);
#164=ORIENTED_EDGE('',*,*,#231,.F.);
#165=ORIENTED_EDGE('',*,*,#229,.F.);
#166=ORIENTED_EDGE('',*,*,#232,.T.);
#167=ORIENTED_EDGE('',*,*,#234,.F.);
#168=ORIENTED_EDGE('',*,*,#237,.F.);
#169=ORIENTED_EDGE('',*,*,#233,.F.);
#170=ORIENTED_EDGE('',*,*,#238,.F.);
#171=ORIENTED_EDGE('',*,*,#235,.F.);
#172=ORIENTED_EDGE('',*,*,#288,.F.);
#173=ORIENTED_EDGE('',*,*,#236,.F.);
#174=ORIENTED_EDGE('',*,*,#240,.F.);
#175=ORIENTED_EDGE('',*,*,#239,.T.);
#176=ORIENTED_EDGE('',*,*,#289,.T.);
#177=ORIENTED_EDGE('',*,*,#288,.T.);
#178=ORIENTED_EDGE('',*,*,#251,.F.);
#179=ORIENTED_EDGE('',*,*,#275,.F.);
#180=ORIENTED_EDGE('',*,*,#267,.T.);
#181=ORIENTED_EDGE('',*,*,#249,.F.);
#182=ORIENTED_EDGE('',*,*,#262,.F.);
#183=ORIENTED_EDGE('',*,*,#268,.F.);
#184=ORIENTED_EDGE('',*,*,#257,.T.);
#185=ORIENTED_EDGE('',*,*,#245,.F.);
#186=ORIENTED_EDGE('',*,*,#289,.F.);
#187=ORIENTED_EDGE('',*,*,#277,.F.);
#188=ORIENTED_EDGE('',*,*,#241,.T.);
#189=ORIENTED_EDGE('',*,*,#276,.F.);
#190=ORIENTED_EDGE('',*,*,#253,.F.);
#191=ORIENTED_EDGE('',*,*,#290,.F.);
#192=ORIENTED_EDGE('',*,*,#265,.T.);
#193=ORIENTED_EDGE('',*,*,#266,.T.);
#194=ORIENTED_EDGE('',*,*,#290,.T.);
#195=ORIENTED_EDGE('',*,*,#252,.T.);
#196=ORIENTED_EDGE('',*,*,#243,.T.);
#197=ORIENTED_EDGE('',*,*,#256,.T.);
#198=ORIENTED_EDGE('',*,*,#258,.T.);
#199=ORIENTED_EDGE('',*,*,#263,.T.);
#200=ORIENTED_EDGE('',*,*,#247,.T.);
#201=ORIENTED_EDGE('',*,*,#291,.F.);
#202=ORIENTED_EDGE('',*,*,#272,.F.);
#203=ORIENTED_EDGE('',*,*,#279,.F.);
#204=ORIENTED_EDGE('',*,*,#269,.F.);
#205=ORIENTED_EDGE('',*,*,#280,.F.);
#206=ORIENTED_EDGE('',*,*,#270,.F.);
#207=ORIENTED_EDGE('',*,*,#281,.F.);
#208=ORIENTED_EDGE('',*,*,#271,.F.);
#209=ORIENTED_EDGE('',*,*,#282,.F.);
#210=ORIENTED_EDGE('',*,*,#273,.F.);
#211=ORIENTED_EDGE('',*,*,#283,.F.);
#212=ORIENTED_EDGE('',*,*,#274,.F.);
#213=ORIENTED_EDGE('',*,*,#284,.F.);
#214=ORIENTED_EDGE('',*,*,#278,.F.);
#215=ORIENTED_EDGE('',*,*,#285,.F.);
#216=ORIENTED_EDGE('',*,*,#291,.T.);
#217=ORIENTED_EDGE('',*,*,#286,.F.);
#218=ORIENTED_EDGE('',*,*,#225,.F.);
#219=ORIENTED_EDGE('',*,*,#224,.F.);
#220=ORIENTED_EDGE('',*,*,#287,.F.);
#221=EDGE_CURVE('',#292,#292,#353,.T.);
#222=EDGE_CURVE('',#293,#293,#354,.T.);
#223=EDGE_CURVE('',#294,#294,#355,.T.);
#224=EDGE_CURVE('',#295,#296,#356,.T.);
#225=EDGE_CURVE('',#296,#295,#357,.T.);
#226=EDGE_CURVE('',#297,#297,#358,.T.);
#227=EDGE_CURVE('',#298,#298,#359,.T.);
#228=EDGE_CURVE('',#299,#299,#360,.T.);
#229=EDGE_CURVE('',#300,#300,#361,.T.);
#230=EDGE_CURVE('',#301,#301,#362,.T.);
#231=EDGE_CURVE('',#302,#302,#363,.T.);
#232=EDGE_CURVE('',#303,#303,#364,.T.);
#233=EDGE_CURVE('',#304,#304,#365,.T.);
#234=EDGE_CURVE('',#305,#305,#366,.T.);
#235=EDGE_CURVE('',#306,#306,#367,.T.);
#236=EDGE_CURVE('',#307,#307,#368,.T.);
#237=EDGE_CURVE('',#308,#308,#369,.T.);
#238=EDGE_CURVE('',#309,#309,#370,.T.);
#239=EDGE_CURVE('',#310,#310,#371,.T.);
#240=EDGE_CURVE('',#311,#311,#372,.T.);
#241=EDGE_CURVE('',#312,#312,#373,.T.);
#242=EDGE_CURVE('',#313,#314,#374,.T.);
#243=EDGE_CURVE('',#315,#314,#375,.T.);
#244=EDGE_CURVE('',#316,#315,#376,.T.);
#245=EDGE_CURVE('',#316,#313,#377,.T.);
#246=EDGE_CURVE('',#317,#318,#378,.T.);
#247=EDGE_CURVE('',#319,#318,#379,.T.);
#248=EDGE_CURVE('',#320,#319,#380,.T.);
#249=EDGE_CURVE('',#320,#317,#381,.T.);
#250=EDGE_CURVE('',#321,#322,#25,.T.);
#251=EDGE_CURVE('',#321,#316,#26,.T.);
#252=EDGE_CURVE('',#323,#315,#27,.T.);
#253=EDGE_CURVE('',#323,#322,#28,.T.);
#254=EDGE_CURVE('',#324,#325,#29,.T.);
#255=EDGE_CURVE('',#326,#324,#30,.T.);
#256=EDGE_CURVE('',#314,#326,#31,.T.);
#257=EDGE_CURVE('',#325,#313,#32,.T.);
#258=EDGE_CURVE('',#326,#327,#382,.T.);
#259=EDGE_CURVE('',#328,#324,#383,.T.);
#260=EDGE_CURVE('',#327,#328,#33,.T.);
#261=EDGE_CURVE('',#329,#328,#34,.T.);
#262=EDGE_CURVE('',#329,#320,#35,.T.);
#263=EDGE_CURVE('',#327,#319,#36,.T.);
#264=EDGE_CURVE('',#330,#331,#37,.T.);
#265=EDGE_CURVE('',#332,#330,#38,.T.);
#266=EDGE_CURVE('',#318,#332,#39,.T.);
#267=EDGE_CURVE('',#331,#317,#40,.T.);
#268=EDGE_CURVE('',#325,#329,#384,.T.);
#269=EDGE_CURVE('',#333,#333,#385,.T.);
#270=EDGE_CURVE('',#334,#334,#386,.T.);
#271=EDGE_CURVE('',#335,#335,#387,.T.);
#272=EDGE_CURVE('',#336,#336,#388,.T.);
#273=EDGE_CURVE('',#337,#337,#389,.T.);
#274=EDGE_CURVE('',#338,#338,#390,.T.);
#275=EDGE_CURVE('',#331,#321,#391,.T.);
#276=EDGE_CURVE('',#322,#330,#392,.T.);
#277=EDGE_CURVE('',#339,#339,#393,.T.);
#278=EDGE_CURVE('',#340,#340,#394,.T.);
#279=EDGE_CURVE('',#341,#341,#395,.T.);
#280=EDGE_CURVE('',#342,#342,#396,.T.);
#281=EDGE_CURVE('',#343,#343,#397,.T.);
#282=EDGE_CURVE('',#344,#344,#398,.T.);
#283=EDGE_CURVE('',#345,#345,#399,.T.);
#284=EDGE_CURVE('',#346,#346,#400,.T.);
#285=EDGE_CURVE('',#347,#347,#401,.T.);
#286=EDGE_CURVE('',#348,#348,#402,.T.);
#287=EDGE_CURVE('',#349,#349,#403,.T.);
#288=EDGE_CURVE('',#350,#350,#404,.T.);
#289=EDGE_CURVE('',#351,#351,#405,.T.);
#290=EDGE_CURVE('',#332,#323,#406,.T.);
#291=EDGE_CURVE('',#352,#352,#407,.T.);
#292=VERTEX_POINT('',#1314);
#293=VERTEX_POINT('',#1317);
#294=VERTEX_POINT('',#1319);
#295=VERTEX_POINT('',#1322);
#296=VERTEX_POINT('',#1323);
#297=VERTEX_POINT('',#1326);
#298=VERTEX_POINT('',#1329);
#299=VERTEX_POINT('',#1331);
#300=VERTEX_POINT('',#1334);
#301=VERTEX_POINT('',#1336);
#302=VERTEX_POINT('',#1339);
#303=VERTEX_POINT('',#1341);
#304=VERTEX_POINT('',#1344);
#305=VERTEX_POINT('',#1346);
#306=VERTEX_POINT('',#1349);
#307=VERTEX_POINT('',#1352);
#308=VERTEX_POINT('',#1354);
#309=VERTEX_POINT('',#1357);
#310=VERTEX_POINT('',#1359);
#311=VERTEX_POINT('',#1362);
#312=VERTEX_POINT('',#1364);
#313=VERTEX_POINT('',#1367);
#314=VERTEX_POINT('',#1368);
#315=VERTEX_POINT('',#1370);
#316=VERTEX_POINT('',#1372);
#317=VERTEX_POINT('',#1376);
#318=VERTEX_POINT('',#1377);
#319=VERTEX_POINT('',#1379);
#320=VERTEX_POINT('',#1381);
#321=VERTEX_POINT('',#1385);
#322=VERTEX_POINT('',#1386);
#323=VERTEX_POINT('',#1389);
#324=VERTEX_POINT('',#1393);
#325=VERTEX_POINT('',#1394);
#326=VERTEX_POINT('',#1396);
#327=VERTEX_POINT('',#1401);
#328=VERTEX_POINT('',#1403);
#329=VERTEX_POINT('',#1407);
#330=VERTEX_POINT('',#1412);
#331=VERTEX_POINT('',#1413);
#332=VERTEX_POINT('',#1415);
#333=VERTEX_POINT('',#1421);
#334=VERTEX_POINT('',#1423);
#335=VERTEX_POINT('',#1425);
#336=VERTEX_POINT('',#1428);
#337=VERTEX_POINT('',#1430);
#338=VERTEX_POINT('',#1432);
#339=VERTEX_POINT('',#1437);
#340=VERTEX_POINT('',#1439);
#341=VERTEX_POINT('',#1442);
#342=VERTEX_POINT('',#1444);
#343=VERTEX_POINT('',#1446);
#344=VERTEX_POINT('',#1448);
#345=VERTEX_POINT('',#1450);
#346=VERTEX_POINT('',#1452);
#347=VERTEX_POINT('',#1454);
#348=VERTEX_POINT('',#1456);
#349=VERTEX_POINT('',#1460);
#350=VERTEX_POINT('',#1469);
#351=VERTEX_POINT('',#1473);
#352=VERTEX_POINT('',#1480);
#353=CIRCLE('',#991,0.4625);
#354=CIRCLE('',#993,0.4625);
#355=CIRCLE('',#994,0.5625);
#356=CIRCLE('',#996,0.566500000000212);
#357=CIRCLE('',#997,0.566500000000212);
#358=CIRCLE('',#998,0.75);
#359=CIRCLE('',#1000,0.7525);
#360=CIRCLE('',#1001,0.75);
#361=CIRCLE('',#1003,0.657);
#362=CIRCLE('',#1004,0.7525);
#363=CIRCLE('',#1006,0.657);
#364=CIRCLE('',#1007,0.7075);
#365=CIRCLE('',#1009,0.7675);
#366=CIRCLE('',#1010,0.7075);
#367=CIRCLE('',#1012,0.4625);
#368=CIRCLE('',#1014,0.825);
#369=CIRCLE('',#1015,0.7675);
#370=CIRCLE('',#1017,0.4625);
#371=CIRCLE('',#1018,0.7725);
#372=CIRCLE('',#1020,0.7725);
#373=CIRCLE('',#1021,0.685);
#374=CIRCLE('',#1023,1.375);
#375=CIRCLE('',#1024,1.36358680589183);
#376=CIRCLE('',#1025,1.375);
#377=CIRCLE('',#1026,0.855629550780275);
#378=CIRCLE('',#1028,1.375);
#379=CIRCLE('',#1029,1.3635868058911);
#380=CIRCLE('',#1030,1.375);
#381=CIRCLE('',#1031,0.855629550780627);
#382=CIRCLE('',#1035,1.375);
#383=CIRCLE('',#1036,1.345);
#384=CIRCLE('',#1040,0.951);
#385=CIRCLE('',#1041,0.1325);
#386=CIRCLE('',#1042,0.1325);
#387=CIRCLE('',#1043,0.1325);
#388=CIRCLE('',#1045,0.1325);
#389=CIRCLE('',#1046,0.1325);
#390=CIRCLE('',#1047,0.1325);
#391=CIRCLE('',#1048,0.951);
#392=CIRCLE('',#1049,1.345);
#393=CIRCLE('',#1051,0.685);
#394=CIRCLE('',#1052,0.7825);
#395=CIRCLE('',#1054,0.1325);
#396=CIRCLE('',#1055,0.1325);
#397=CIRCLE('',#1056,0.1325);
#398=CIRCLE('',#1057,0.1325);
#399=CIRCLE('',#1058,0.1325);
#400=CIRCLE('',#1059,0.1325);
#401=CIRCLE('',#1060,0.7825);
#402=CIRCLE('',#1061,1.345);
#403=CIRCLE('',#1064,0.5625);
#404=CIRCLE('',#1072,0.825);
#405=CIRCLE('',#1075,0.951);
#406=CIRCLE('',#1079,1.375);
#407=CIRCLE('',#1081,1.375);
#408=EDGE_LOOP('',(#79));
#409=EDGE_LOOP('',(#80));
#410=EDGE_LOOP('',(#81));
#411=EDGE_LOOP('',(#82,#83));
#412=EDGE_LOOP('',(#84));
#413=EDGE_LOOP('',(#85));
#414=EDGE_LOOP('',(#86));
#415=EDGE_LOOP('',(#87));
#416=EDGE_LOOP('',(#88));
#417=EDGE_LOOP('',(#89));
#418=EDGE_LOOP('',(#90));
#419=EDGE_LOOP('',(#91));
#420=EDGE_LOOP('',(#92));
#421=EDGE_LOOP('',(#93));
#422=EDGE_LOOP('',(#94));
#423=EDGE_LOOP('',(#95));
#424=EDGE_LOOP('',(#96));
#425=EDGE_LOOP('',(#97));
#426=EDGE_LOOP('',(#98));
#427=EDGE_LOOP('',(#99));
#428=EDGE_LOOP('',(#100,#101,#102,#103));
#429=EDGE_LOOP('',(#104,#105,#106,#107));
#430=EDGE_LOOP('',(#108,#109,#110,#111,#112));
#431=EDGE_LOOP('',(#113,#114,#115,#116,#117));
#432=EDGE_LOOP('',(#118,#119,#120,#121));
#433=EDGE_LOOP('',(#122,#123,#124,#125,#126));
#434=EDGE_LOOP('',(#127,#128,#129,#130,#131));
#435=EDGE_LOOP('',(#132,#133,#134,#135));
#436=EDGE_LOOP('',(#136));
#437=EDGE_LOOP('',(#137));
#438=EDGE_LOOP('',(#138));
#439=EDGE_LOOP('',(#139));
#440=EDGE_LOOP('',(#140));
#441=EDGE_LOOP('',(#141));
#442=EDGE_LOOP('',(#142,#143,#144,#145));
#443=EDGE_LOOP('',(#146));
#444=EDGE_LOOP('',(#147));
#445=EDGE_LOOP('',(#148));
#446=EDGE_LOOP('',(#149));
#447=EDGE_LOOP('',(#150));
#448=EDGE_LOOP('',(#151));
#449=EDGE_LOOP('',(#152));
#450=EDGE_LOOP('',(#153));
#451=EDGE_LOOP('',(#154));
#452=EDGE_LOOP('',(#155));
#453=EDGE_LOOP('',(#156));
#454=EDGE_LOOP('',(#157));
#455=EDGE_LOOP('',(#158));
#456=EDGE_LOOP('',(#159));
#457=EDGE_LOOP('',(#160));
#458=EDGE_LOOP('',(#161));
#459=EDGE_LOOP('',(#162));
#460=EDGE_LOOP('',(#163));
#461=EDGE_LOOP('',(#164));
#462=EDGE_LOOP('',(#165));
#463=EDGE_LOOP('',(#166));
#464=EDGE_LOOP('',(#167));
#465=EDGE_LOOP('',(#168));
#466=EDGE_LOOP('',(#169));
#467=EDGE_LOOP('',(#170));
#468=EDGE_LOOP('',(#171));
#469=EDGE_LOOP('',(#172));
#470=EDGE_LOOP('',(#173));
#471=EDGE_LOOP('',(#174));
#472=EDGE_LOOP('',(#175));
#473=EDGE_LOOP('',(#176));
#474=EDGE_LOOP('',(#177));
#475=EDGE_LOOP('',(#178,#179,#180,#181,#182,#183,#184,#185));
#476=EDGE_LOOP('',(#186));
#477=EDGE_LOOP('',(#187));
#478=EDGE_LOOP('',(#188));
#479=EDGE_LOOP('',(#189,#190,#191,#192));
#480=EDGE_LOOP('',(#193,#194,#195,#196,#197,#198,#199,#200));
#481=EDGE_LOOP('',(#201));
#482=EDGE_LOOP('',(#202));
#483=EDGE_LOOP('',(#203));
#484=EDGE_LOOP('',(#204));
#485=EDGE_LOOP('',(#205));
#486=EDGE_LOOP('',(#206));
#487=EDGE_LOOP('',(#207));
#488=EDGE_LOOP('',(#208));
#489=EDGE_LOOP('',(#209));
#490=EDGE_LOOP('',(#210));
#491=EDGE_LOOP('',(#211));
#492=EDGE_LOOP('',(#212));
#493=EDGE_LOOP('',(#213));
#494=EDGE_LOOP('',(#214));
#495=EDGE_LOOP('',(#215));
#496=EDGE_LOOP('',(#216));
#497=EDGE_LOOP('',(#217));
#498=EDGE_LOOP('',(#218,#219));
#499=EDGE_LOOP('',(#220));
#500=FACE_BOUND('',#408,.T.);
#501=FACE_BOUND('',#409,.T.);
#502=FACE_BOUND('',#410,.T.);
#503=FACE_BOUND('',#411,.T.);
#504=FACE_BOUND('',#412,.T.);
#505=FACE_BOUND('',#413,.T.);
#506=FACE_BOUND('',#414,.T.);
#507=FACE_BOUND('',#415,.T.);
#508=FACE_BOUND('',#416,.T.);
#509=FACE_BOUND('',#417,.T.);
#510=FACE_BOUND('',#418,.T.);
#511=FACE_BOUND('',#419,.T.);
#512=FACE_BOUND('',#420,.T.);
#513=FACE_BOUND('',#421,.T.);
#514=FACE_BOUND('',#422,.T.);
#515=FACE_BOUND('',#423,.T.);
#516=FACE_BOUND('',#424,.T.);
#517=FACE_BOUND('',#425,.T.);
#518=FACE_BOUND('',#426,.T.);
#519=FACE_BOUND('',#427,.T.);
#520=FACE_BOUND('',#428,.T.);
#521=FACE_BOUND('',#429,.T.);
#522=FACE_BOUND('',#430,.T.);
#523=FACE_BOUND('',#431,.T.);
#524=FACE_BOUND('',#432,.T.);
#525=FACE_BOUND('',#433,.T.);
#526=FACE_BOUND('',#434,.T.);
#527=FACE_BOUND('',#435,.T.);
#528=FACE_BOUND('',#436,.T.);
#529=FACE_BOUND('',#437,.T.);
#530=FACE_BOUND('',#438,.T.);
#531=FACE_BOUND('',#439,.T.);
#532=FACE_BOUND('',#440,.T.);
#533=FACE_BOUND('',#441,.T.);
#534=FACE_BOUND('',#442,.T.);
#535=FACE_BOUND('',#443,.T.);
#536=FACE_BOUND('',#444,.T.);
#537=FACE_BOUND('',#445,.T.);
#538=FACE_BOUND('',#446,.T.);
#539=FACE_BOUND('',#447,.T.);
#540=FACE_BOUND('',#448,.T.);
#541=FACE_BOUND('',#449,.T.);
#542=FACE_BOUND('',#450,.T.);
#543=FACE_BOUND('',#451,.T.);
#544=FACE_BOUND('',#452,.T.);
#545=FACE_BOUND('',#453,.T.);
#546=FACE_BOUND('',#454,.T.);
#547=FACE_BOUND('',#455,.T.);
#548=FACE_BOUND('',#456,.T.);
#549=FACE_BOUND('',#457,.T.);
#550=FACE_BOUND('',#458,.T.);
#551=FACE_BOUND('',#459,.T.);
#552=FACE_BOUND('',#460,.T.);
#553=FACE_BOUND('',#461,.T.);
#554=FACE_BOUND('',#462,.T.);
#555=FACE_BOUND('',#463,.T.);
#556=FACE_BOUND('',#464,.T.);
#557=FACE_BOUND('',#465,.T.);
#558=FACE_BOUND('',#466,.T.);
#559=FACE_BOUND('',#467,.T.);
#560=FACE_BOUND('',#468,.T.);
#561=FACE_BOUND('',#469,.T.);
#562=FACE_BOUND('',#470,.T.);
#563=FACE_BOUND('',#471,.T.);
#564=FACE_BOUND('',#472,.T.);
#565=FACE_BOUND('',#473,.T.);
#566=FACE_BOUND('',#474,.T.);
#567=FACE_BOUND('',#475,.T.);
#568=FACE_BOUND('',#476,.T.);
#569=FACE_BOUND('',#477,.T.);
#570=FACE_BOUND('',#478,.T.);
#571=FACE_BOUND('',#479,.T.);
#572=FACE_BOUND('',#480,.T.);
#573=FACE_BOUND('',#481,.T.);
#574=FACE_BOUND('',#482,.T.);
#575=FACE_BOUND('',#483,.T.);
#576=FACE_BOUND('',#484,.T.);
#577=FACE_BOUND('',#485,.T.);
#578=FACE_BOUND('',#486,.T.);
#579=FACE_BOUND('',#487,.T.);
#580=FACE_BOUND('',#488,.T.);
#581=FACE_BOUND('',#489,.T.);
#582=FACE_BOUND('',#490,.T.);
#583=FACE_BOUND('',#491,.T.);
#584=FACE_BOUND('',#492,.T.);
#585=FACE_BOUND('',#493,.T.);
#586=FACE_BOUND('',#494,.T.);
#587=FACE_BOUND('',#495,.T.);
#588=FACE_BOUND('',#496,.T.);
#589=FACE_BOUND('',#497,.T.);
#590=FACE_BOUND('',#498,.T.);
#591=FACE_BOUND('',#499,.T.);
#592=PLANE('',#990);
#593=PLANE('',#992);
#594=PLANE('',#995);
#595=PLANE('',#999);
#596=PLANE('',#1002);
#597=PLANE('',#1005);
#598=PLANE('',#1008);
#599=PLANE('',#1011);
#600=PLANE('',#1013);
#601=PLANE('',#1016);
#602=PLANE('',#1019);
#603=PLANE('',#1032);
#604=PLANE('',#1033);
#605=PLANE('',#1037);
#606=PLANE('',#1038);
#607=PLANE('',#1039);
#608=PLANE('',#1044);
#609=PLANE('',#1050);
#610=PLANE('',#1053);
#611=STYLED_ITEM('',(#657),#939);
#612=STYLED_ITEM('',(#658),#940);
#613=STYLED_ITEM('',(#659),#941);
#614=STYLED_ITEM('',(#660),#942);
#615=STYLED_ITEM('',(#661),#943);
#616=STYLED_ITEM('',(#662),#944);
#617=STYLED_ITEM('',(#663),#945);
#618=STYLED_ITEM('',(#664),#946);
#619=STYLED_ITEM('',(#665),#947);
#620=STYLED_ITEM('',(#666),#948);
#621=STYLED_ITEM('',(#667),#949);
#622=STYLED_ITEM('',(#668),#950);
#623=STYLED_ITEM('',(#669),#951);
#624=STYLED_ITEM('',(#670),#952);
#625=STYLED_ITEM('',(#671),#953);
#626=STYLED_ITEM('',(#672),#954);
#627=STYLED_ITEM('',(#673),#955);
#628=STYLED_ITEM('',(#674),#956);
#629=STYLED_ITEM('',(#675),#957);
#630=STYLED_ITEM('',(#676),#958);
#631=STYLED_ITEM('',(#677),#959);
#632=STYLED_ITEM('',(#678),#960);
#633=STYLED_ITEM('',(#679),#961);
#634=STYLED_ITEM('',(#680),#962);
#635=STYLED_ITEM('',(#681),#963);
#636=STYLED_ITEM('',(#682),#964);
#637=STYLED_ITEM('',(#683),#965);
#638=STYLED_ITEM('',(#684),#966);
#639=STYLED_ITEM('',(#685),#967);
#640=STYLED_ITEM('',(#686),#968);
#641=STYLED_ITEM('',(#687),#969);
#642=STYLED_ITEM('',(#688),#970);
#643=STYLED_ITEM('',(#689),#971);
#644=STYLED_ITEM('',(#690),#972);
#645=STYLED_ITEM('',(#691),#973);
#646=STYLED_ITEM('',(#692),#974);
#647=STYLED_ITEM('',(#693),#975);
#648=STYLED_ITEM('',(#694),#976);
#649=STYLED_ITEM('',(#695),#977);
#650=STYLED_ITEM('',(#696),#978);
#651=STYLED_ITEM('',(#697),#979);
#652=STYLED_ITEM('',(#698),#980);
#653=STYLED_ITEM('',(#699),#981);
#654=STYLED_ITEM('',(#700),#982);
#655=STYLED_ITEM('',(#701),#983);
#656=STYLED_ITEM('',(#702),#984);
#657=PRESENTATION_STYLE_ASSIGNMENT((#703));
#658=PRESENTATION_STYLE_ASSIGNMENT((#704));
#659=PRESENTATION_STYLE_ASSIGNMENT((#705));
#660=PRESENTATION_STYLE_ASSIGNMENT((#706));
#661=PRESENTATION_STYLE_ASSIGNMENT((#707));
#662=PRESENTATION_STYLE_ASSIGNMENT((#708));
#663=PRESENTATION_STYLE_ASSIGNMENT((#709));
#664=PRESENTATION_STYLE_ASSIGNMENT((#710));
#665=PRESENTATION_STYLE_ASSIGNMENT((#711));
#666=PRESENTATION_STYLE_ASSIGNMENT((#712));
#667=PRESENTATION_STYLE_ASSIGNMENT((#713));
#668=PRESENTATION_STYLE_ASSIGNMENT((#714));
#669=PRESENTATION_STYLE_ASSIGNMENT((#715));
#670=PRESENTATION_STYLE_ASSIGNMENT((#716));
#671=PRESENTATION_STYLE_ASSIGNMENT((#717));
#672=PRESENTATION_STYLE_ASSIGNMENT((#718));
#673=PRESENTATION_STYLE_ASSIGNMENT((#719));
#674=PRESENTATION_STYLE_ASSIGNMENT((#720));
#675=PRESENTATION_STYLE_ASSIGNMENT((#721));
#676=PRESENTATION_STYLE_ASSIGNMENT((#722));
#677=PRESENTATION_STYLE_ASSIGNMENT((#723));
#678=PRESENTATION_STYLE_ASSIGNMENT((#724));
#679=PRESENTATION_STYLE_ASSIGNMENT((#725));
#680=PRESENTATION_STYLE_ASSIGNMENT((#726));
#681=PRESENTATION_STYLE_ASSIGNMENT((#727));
#682=PRESENTATION_STYLE_ASSIGNMENT((#728));
#683=PRESENTATION_STYLE_ASSIGNMENT((#729));
#684=PRESENTATION_STYLE_ASSIGNMENT((#730));
#685=PRESENTATION_STYLE_ASSIGNMENT((#731));
#686=PRESENTATION_STYLE_ASSIGNMENT((#732));
#687=PRESENTATION_STYLE_ASSIGNMENT((#733));
#688=PRESENTATION_STYLE_ASSIGNMENT((#734));
#689=PRESENTATION_STYLE_ASSIGNMENT((#735));
#690=PRESENTATION_STYLE_ASSIGNMENT((#736));
#691=PRESENTATION_STYLE_ASSIGNMENT((#737));
#692=PRESENTATION_STYLE_ASSIGNMENT((#738));
#693=PRESENTATION_STYLE_ASSIGNMENT((#739));
#694=PRESENTATION_STYLE_ASSIGNMENT((#740));
#695=PRESENTATION_STYLE_ASSIGNMENT((#741));
#696=PRESENTATION_STYLE_ASSIGNMENT((#742));
#697=PRESENTATION_STYLE_ASSIGNMENT((#743));
#698=PRESENTATION_STYLE_ASSIGNMENT((#744));
#699=PRESENTATION_STYLE_ASSIGNMENT((#745));
#700=PRESENTATION_STYLE_ASSIGNMENT((#746));
#701=PRESENTATION_STYLE_ASSIGNMENT((#747));
#702=PRESENTATION_STYLE_ASSIGNMENT((#748));
#703=SURFACE_STYLE_USAGE(.BOTH.,#749);
#704=SURFACE_STYLE_USAGE(.BOTH.,#750);
#705=SURFACE_STYLE_USAGE(.BOTH.,#751);
#706=SURFACE_STYLE_USAGE(.BOTH.,#752);
#707=SURFACE_STYLE_USAGE(.BOTH.,#753);
#708=SURFACE_STYLE_USAGE(.BOTH.,#754);
#709=SURFACE_STYLE_USAGE(.BOTH.,#755);
#710=SURFACE_STYLE_USAGE(.BOTH.,#756);
#711=SURFACE_STYLE_USAGE(.BOTH.,#757);
#712=SURFACE_STYLE_USAGE(.BOTH.,#758);
#713=SURFACE_STYLE_USAGE(.BOTH.,#759);
#714=SURFACE_STYLE_USAGE(.BOTH.,#760);
#715=SURFACE_STYLE_USAGE(.BOTH.,#761);
#716=SURFACE_STYLE_USAGE(.BOTH.,#762);
#717=SURFACE_STYLE_USAGE(.BOTH.,#763);
#718=SURFACE_STYLE_USAGE(.BOTH.,#764);
#719=SURFACE_STYLE_USAGE(.BOTH.,#765);
#720=SURFACE_STYLE_USAGE(.BOTH.,#766);
#721=SURFACE_STYLE_USAGE(.BOTH.,#767);
#722=SURFACE_STYLE_USAGE(.BOTH.,#768);
#723=SURFACE_STYLE_USAGE(.BOTH.,#769);
#724=SURFACE_STYLE_USAGE(.BOTH.,#770);
#725=SURFACE_STYLE_USAGE(.BOTH.,#771);
#726=SURFACE_STYLE_USAGE(.BOTH.,#772);
#727=SURFACE_STYLE_USAGE(.BOTH.,#773);
#728=SURFACE_STYLE_USAGE(.BOTH.,#774);
#729=SURFACE_STYLE_USAGE(.BOTH.,#775);
#730=SURFACE_STYLE_USAGE(.BOTH.,#776);
#731=SURFACE_STYLE_USAGE(.BOTH.,#777);
#732=SURFACE_STYLE_USAGE(.BOTH.,#778);
#733=SURFACE_STYLE_USAGE(.BOTH.,#779);
#734=SURFACE_STYLE_USAGE(.BOTH.,#780);
#735=SURFACE_STYLE_USAGE(.BOTH.,#781);
#736=SURFACE_STYLE_USAGE(.BOTH.,#782);
#737=SURFACE_STYLE_USAGE(.BOTH.,#783);
#738=SURFACE_STYLE_USAGE(.BOTH.,#784);
#739=SURFACE_STYLE_USAGE(.BOTH.,#785);
#740=SURFACE_STYLE_USAGE(.BOTH.,#786);
#741=SURFACE_STYLE_USAGE(.BOTH.,#787);
#742=SURFACE_STYLE_USAGE(.BOTH.,#788);
#743=SURFACE_STYLE_USAGE(.BOTH.,#789);
#744=SURFACE_STYLE_USAGE(.BOTH.,#790);
#745=SURFACE_STYLE_USAGE(.BOTH.,#791);
#746=SURFACE_STYLE_USAGE(.BOTH.,#792);
#747=SURFACE_STYLE_USAGE(.BOTH.,#793);
#748=SURFACE_STYLE_USAGE(.BOTH.,#794);
#749=SURFACE_SIDE_STYLE('',(#799,#795));
#750=SURFACE_SIDE_STYLE('',(#800));
#751=SURFACE_SIDE_STYLE('',(#801));
#752=SURFACE_SIDE_STYLE('',(#802));
#753=SURFACE_SIDE_STYLE('',(#803));
#754=SURFACE_SIDE_STYLE('',(#804));
#755=SURFACE_SIDE_STYLE('',(#805));
#756=SURFACE_SIDE_STYLE('',(#806,#796));
#757=SURFACE_SIDE_STYLE('',(#807));
#758=SURFACE_SIDE_STYLE('',(#808));
#759=SURFACE_SIDE_STYLE('',(#809));
#760=SURFACE_SIDE_STYLE('',(#810));
#761=SURFACE_SIDE_STYLE('',(#811));
#762=SURFACE_SIDE_STYLE('',(#812));
#763=SURFACE_SIDE_STYLE('',(#813));
#764=SURFACE_SIDE_STYLE('',(#814));
#765=SURFACE_SIDE_STYLE('',(#815));
#766=SURFACE_SIDE_STYLE('',(#816));
#767=SURFACE_SIDE_STYLE('',(#817));
#768=SURFACE_SIDE_STYLE('',(#818));
#769=SURFACE_SIDE_STYLE('',(#819));
#770=SURFACE_SIDE_STYLE('',(#820));
#771=SURFACE_SIDE_STYLE('',(#821));
#772=SURFACE_SIDE_STYLE('',(#822));
#773=SURFACE_SIDE_STYLE('',(#823));
#774=SURFACE_SIDE_STYLE('',(#824));
#775=SURFACE_SIDE_STYLE('',(#825));
#776=SURFACE_SIDE_STYLE('',(#826));
#777=SURFACE_SIDE_STYLE('',(#827));
#778=SURFACE_SIDE_STYLE('',(#828));
#779=SURFACE_SIDE_STYLE('',(#829));
#780=SURFACE_SIDE_STYLE('',(#830));
#781=SURFACE_SIDE_STYLE('',(#831));
#782=SURFACE_SIDE_STYLE('',(#832));
#783=SURFACE_SIDE_STYLE('',(#833));
#784=SURFACE_SIDE_STYLE('',(#834));
#785=SURFACE_SIDE_STYLE('',(#835));
#786=SURFACE_SIDE_STYLE('',(#836));
#787=SURFACE_SIDE_STYLE('',(#837));
#788=SURFACE_SIDE_STYLE('',(#838));
#789=SURFACE_SIDE_STYLE('',(#839));
#790=SURFACE_SIDE_STYLE('',(#840));
#791=SURFACE_SIDE_STYLE('',(#841));
#792=SURFACE_SIDE_STYLE('',(#842));
#793=SURFACE_SIDE_STYLE('',(#843));
#794=SURFACE_SIDE_STYLE('',(#844));
#795=SURFACE_STYLE_RENDERING_WITH_PROPERTIES(.CONSTANT_SHADING.,#937,(#797));
#796=SURFACE_STYLE_RENDERING_WITH_PROPERTIES(.CONSTANT_SHADING.,#937,(#798));
#797=SURFACE_STYLE_TRANSPARENT(0.699999988079071);
#798=SURFACE_STYLE_TRANSPARENT(0.699999988079071);
#799=SURFACE_STYLE_FILL_AREA(#845);
#800=SURFACE_STYLE_FILL_AREA(#846);
#801=SURFACE_STYLE_FILL_AREA(#847);
#802=SURFACE_STYLE_FILL_AREA(#848);
#803=SURFACE_STYLE_FILL_AREA(#849);
#804=SURFACE_STYLE_FILL_AREA(#850);
#805=SURFACE_STYLE_FILL_AREA(#851);
#806=SURFACE_STYLE_FILL_AREA(#852);
#807=SURFACE_STYLE_FILL_AREA(#853);
#808=SURFACE_STYLE_FILL_AREA(#854);
#809=SURFACE_STYLE_FILL_AREA(#855);
#810=SURFACE_STYLE_FILL_AREA(#856);
#811=SURFACE_STYLE_FILL_AREA(#857);
#812=SURFACE_STYLE_FILL_AREA(#858);
#813=SURFACE_STYLE_FILL_AREA(#859);
#814=SURFACE_STYLE_FILL_AREA(#860);
#815=SURFACE_STYLE_FILL_AREA(#861);
#816=SURFACE_STYLE_FILL_AREA(#862);
#817=SURFACE_STYLE_FILL_AREA(#863);
#818=SURFACE_STYLE_FILL_AREA(#864);
#819=SURFACE_STYLE_FILL_AREA(#865);
#820=SURFACE_STYLE_FILL_AREA(#866);
#821=SURFACE_STYLE_FILL_AREA(#867);
#822=SURFACE_STYLE_FILL_AREA(#868);
#823=SURFACE_STYLE_FILL_AREA(#869);
#824=SURFACE_STYLE_FILL_AREA(#870);
#825=SURFACE_STYLE_FILL_AREA(#871);
#826=SURFACE_STYLE_FILL_AREA(#872);
#827=SURFACE_STYLE_FILL_AREA(#873);
#828=SURFACE_STYLE_FILL_AREA(#874);
#829=SURFACE_STYLE_FILL_AREA(#875);
#830=SURFACE_STYLE_FILL_AREA(#876);
#831=SURFACE_STYLE_FILL_AREA(#877);
#832=SURFACE_STYLE_FILL_AREA(#878);
#833=SURFACE_STYLE_FILL_AREA(#879);
#834=SURFACE_STYLE_FILL_AREA(#880);
#835=SURFACE_STYLE_FILL_AREA(#881);
#836=SURFACE_STYLE_FILL_AREA(#882);
#837=SURFACE_STYLE_FILL_AREA(#883);
#838=SURFACE_STYLE_FILL_AREA(#884);
#839=SURFACE_STYLE_FILL_AREA(#885);
#840=SURFACE_STYLE_FILL_AREA(#886);
#841=SURFACE_STYLE_FILL_AREA(#887);
#842=SURFACE_STYLE_FILL_AREA(#888);
#843=SURFACE_STYLE_FILL_AREA(#889);
#844=SURFACE_STYLE_FILL_AREA(#890);
#845=FILL_AREA_STYLE('',(#891));
#846=FILL_AREA_STYLE('',(#892));
#847=FILL_AREA_STYLE('',(#893));
#848=FILL_AREA_STYLE('',(#894));
#849=FILL_AREA_STYLE('',(#895));
#850=FILL_AREA_STYLE('',(#896));
#851=FILL_AREA_STYLE('',(#897));
#852=FILL_AREA_STYLE('',(#898));
#853=FILL_AREA_STYLE('',(#899));
#854=FILL_AREA_STYLE('',(#900));
#855=FILL_AREA_STYLE('',(#901));
#856=FILL_AREA_STYLE('',(#902));
#857=FILL_AREA_STYLE('',(#903));
#858=FILL_AREA_STYLE('',(#904));
#859=FILL_AREA_STYLE('',(#905));
#860=FILL_AREA_STYLE('',(#906));
#861=FILL_AREA_STYLE('',(#907));
#862=FILL_AREA_STYLE('',(#908));
#863=FILL_AREA_STYLE('',(#909));
#864=FILL_AREA_STYLE('',(#910));
#865=FILL_AREA_STYLE('',(#911));
#866=FILL_AREA_STYLE('',(#912));
#867=FILL_AREA_STYLE('',(#913));
#868=FILL_AREA_STYLE('',(#914));
#869=FILL_AREA_STYLE('',(#915));
#870=FILL_AREA_STYLE('',(#916));
#871=FILL_AREA_STYLE('',(#917));
#872=FILL_AREA_STYLE('',(#918));
#873=FILL_AREA_STYLE('',(#919));
#874=FILL_AREA_STYLE('',(#920));
#875=FILL_AREA_STYLE('',(#921));
#876=FILL_AREA_STYLE('',(#922));
#877=FILL_AREA_STYLE('',(#923));
#878=FILL_AREA_STYLE('',(#924));
#879=FILL_AREA_STYLE('',(#925));
#880=FILL_AREA_STYLE('',(#926));
#881=FILL_AREA_STYLE('',(#927));
#882=FILL_AREA_STYLE('',(#928));
#883=FILL_AREA_STYLE('',(#929));
#884=FILL_AREA_STYLE('',(#930));
#885=FILL_AREA_STYLE('',(#931));
#886=FILL_AREA_STYLE('',(#932));
#887=FILL_AREA_STYLE('',(#933));
#888=FILL_AREA_STYLE('',(#934));
#889=FILL_AREA_STYLE('',(#935));
#890=FILL_AREA_STYLE('',(#936));
#891=FILL_AREA_STYLE_COLOUR('',#937);
#892=FILL_AREA_STYLE_COLOUR('',#938);
#893=FILL_AREA_STYLE_COLOUR('',#938);
#894=FILL_AREA_STYLE_COLOUR('',#938);
#895=FILL_AREA_STYLE_COLOUR('',#938);
#896=FILL_AREA_STYLE_COLOUR('',#938);
#897=FILL_AREA_STYLE_COLOUR('',#938);
#898=FILL_AREA_STYLE_COLOUR('',#937);
#899=FILL_AREA_STYLE_COLOUR('',#938);
#900=FILL_AREA_STYLE_COLOUR('',#938);
#901=FILL_AREA_STYLE_COLOUR('',#938);
#902=FILL_AREA_STYLE_COLOUR('',#938);
#903=FILL_AREA_STYLE_COLOUR('',#938);
#904=FILL_AREA_STYLE_COLOUR('',#938);
#905=FILL_AREA_STYLE_COLOUR('',#938);
#906=FILL_AREA_STYLE_COLOUR('',#938);
#907=FILL_AREA_STYLE_COLOUR('',#938);
#908=FILL_AREA_STYLE_COLOUR('',#938);
#909=FILL_AREA_STYLE_COLOUR('',#938);
#910=FILL_AREA_STYLE_COLOUR('',#938);
#911=FILL_AREA_STYLE_COLOUR('',#938);
#912=FILL_AREA_STYLE_COLOUR('',#938);
#913=FILL_AREA_STYLE_COLOUR('',#938);
#914=FILL_AREA_STYLE_COLOUR('',#938);
#915=FILL_AREA_STYLE_COLOUR('',#938);
#916=FILL_AREA_STYLE_COLOUR('',#938);
#917=FILL_AREA_STYLE_COLOUR('',#938);
#918=FILL_AREA_STYLE_COLOUR('',#938);
#919=FILL_AREA_STYLE_COLOUR('',#938);
#920=FILL_AREA_STYLE_COLOUR('',#938);
#921=FILL_AREA_STYLE_COLOUR('',#938);
#922=FILL_AREA_STYLE_COLOUR('',#938);
#923=FILL_AREA_STYLE_COLOUR('',#938);
#924=FILL_AREA_STYLE_COLOUR('',#938);
#925=FILL_AREA_STYLE_COLOUR('',#938);
#926=FILL_AREA_STYLE_COLOUR('',#938);
#927=FILL_AREA_STYLE_COLOUR('',#938);
#928=FILL_AREA_STYLE_COLOUR('',#938);
#929=FILL_AREA_STYLE_COLOUR('',#938);
#930=FILL_AREA_STYLE_COLOUR('',#938);
#931=FILL_AREA_STYLE_COLOUR('',#938);
#932=FILL_AREA_STYLE_COLOUR('',#938);
#933=FILL_AREA_STYLE_COLOUR('',#938);
#934=FILL_AREA_STYLE_COLOUR('',#938);
#935=FILL_AREA_STYLE_COLOUR('',#938);
#936=FILL_AREA_STYLE_COLOUR('',#938);
#937=COLOUR_RGB('',0.444705873727798,0.599117696285248,0.74117648601532);
#938=COLOUR_RGB('',0.331739127635956,0.340869575738907,0.349999994039536);
#939=ADVANCED_FACE('',(#500),#592,.T.);
#940=ADVANCED_FACE('',(#501,#502),#593,.T.);
#941=ADVANCED_FACE('',(#503,#504),#594,.T.);
#942=ADVANCED_FACE('',(#505,#506),#595,.T.);
#943=ADVANCED_FACE('',(#507,#508),#596,.T.);
#944=ADVANCED_FACE('',(#509,#510),#597,.T.);
#945=ADVANCED_FACE('',(#511,#512),#598,.T.);
#946=ADVANCED_FACE('',(#513),#599,.T.);
#947=ADVANCED_FACE('',(#514,#515),#600,.T.);
#948=ADVANCED_FACE('',(#516,#517),#601,.T.);
#949=ADVANCED_FACE('',(#518,#519),#602,.T.);
#950=ADVANCED_FACE('',(#520),#57,.F.);
#951=ADVANCED_FACE('',(#521),#58,.F.);
#952=ADVANCED_FACE('',(#522),#603,.T.);
#953=ADVANCED_FACE('',(#523),#604,.F.);
#954=ADVANCED_FACE('',(#524),#21,.T.);
#955=ADVANCED_FACE('',(#525),#605,.T.);
#956=ADVANCED_FACE('',(#526),#606,.F.);
#957=ADVANCED_FACE('',(#527,#528,#529,#530),#607,.T.);
#958=ADVANCED_FACE('',(#531,#532,#533,#534),#608,.T.);
#959=ADVANCED_FACE('',(#535,#536),#609,.T.);
#960=ADVANCED_FACE('',(#537,#538,#539,#540,#541,#542,#543,#544),#610,.T.);
#961=ADVANCED_FACE('',(#545,#546),#59,.F.);
#962=ADVANCED_FACE('',(#547,#548),#60,.T.);
#963=ADVANCED_FACE('',(#549,#550),#61,.T.);
#964=ADVANCED_FACE('',(#551,#552),#62,.F.);
#965=ADVANCED_FACE('',(#553,#554),#63,.F.);
#966=ADVANCED_FACE('',(#555,#556),#64,.T.);
#967=ADVANCED_FACE('',(#557,#558),#65,.F.);
#968=ADVANCED_FACE('',(#559,#560),#66,.F.);
#969=ADVANCED_FACE('',(#561,#562),#67,.F.);
#970=ADVANCED_FACE('',(#563,#564),#68,.T.);
#971=ADVANCED_FACE('',(#565,#566),#22,.T.);
#972=ADVANCED_FACE('',(#567,#568),#69,.F.);
#973=ADVANCED_FACE('',(#569,#570),#70,.T.);
#974=ADVANCED_FACE('',(#571),#23,.T.);
#975=ADVANCED_FACE('',(#572,#573),#71,.T.);
#976=ADVANCED_FACE('',(#574,#575),#72,.F.);
#977=ADVANCED_FACE('',(#576,#577),#73,.F.);
#978=ADVANCED_FACE('',(#578,#579),#74,.F.);
#979=ADVANCED_FACE('',(#580,#581),#75,.F.);
#980=ADVANCED_FACE('',(#582,#583),#76,.F.);
#981=ADVANCED_FACE('',(#584,#585),#77,.F.);
#982=ADVANCED_FACE('',(#586,#587),#78,.F.);
#983=ADVANCED_FACE('',(#588,#589),#24,.T.);
#984=ADVANCED_FACE('',(#590,#591),#20,.F.);
#985=CLOSED_SHELL('',(#939,#940,#941,#942,#943,#944,#945,#946,#947,#948,
#949,#950,#951,#952,#953,#954,#955,#956,#957,#958,#959,#960,#961,#962,#963,
#964,#965,#966,#967,#968,#969,#970,#971,#972,#973,#974,#975,#976,#977,#978,
#979,#980,#981,#982,#983,#984));
#986=MANIFOLD_SOLID_BREP('Combine1',#985);
#987=SHAPE_DEFINITION_REPRESENTATION(#1499,#988);
#988=SHAPE_REPRESENTATION('VPZL-275UCEU',(#989),#1491);
#989=AXIS2_PLACEMENT_3D('',#1311,#1091,#1092);
#990=AXIS2_PLACEMENT_3D('',#1312,#1093,#1094);
#991=AXIS2_PLACEMENT_3D('',#1313,#1095,#1096);
#992=AXIS2_PLACEMENT_3D('',#1315,#1097,#1098);
#993=AXIS2_PLACEMENT_3D('',#1316,#1099,#1100);
#994=AXIS2_PLACEMENT_3D('',#1318,#1101,#1102);
#995=AXIS2_PLACEMENT_3D('',#1320,#1103,#1104);
#996=AXIS2_PLACEMENT_3D('',#1321,#1105,#1106);
#997=AXIS2_PLACEMENT_3D('',#1324,#1107,#1108);
#998=AXIS2_PLACEMENT_3D('',#1325,#1109,#1110);
#999=AXIS2_PLACEMENT_3D('',#1327,#1111,#1112);
#1000=AXIS2_PLACEMENT_3D('',#1328,#1113,#1114);
#1001=AXIS2_PLACEMENT_3D('',#1330,#1115,#1116);
#1002=AXIS2_PLACEMENT_3D('',#1332,#1117,#1118);
#1003=AXIS2_PLACEMENT_3D('',#1333,#1119,#1120);
#1004=AXIS2_PLACEMENT_3D('',#1335,#1121,#1122);
#1005=AXIS2_PLACEMENT_3D('',#1337,#1123,#1124);
#1006=AXIS2_PLACEMENT_3D('',#1338,#1125,#1126);
#1007=AXIS2_PLACEMENT_3D('',#1340,#1127,#1128);
#1008=AXIS2_PLACEMENT_3D('',#1342,#1129,#1130);
#1009=AXIS2_PLACEMENT_3D('',#1343,#1131,#1132);
#1010=AXIS2_PLACEMENT_3D('',#1345,#1133,#1134);
#1011=AXIS2_PLACEMENT_3D('',#1347,#1135,#1136);
#1012=AXIS2_PLACEMENT_3D('',#1348,#1137,#1138);
#1013=AXIS2_PLACEMENT_3D('',#1350,#1139,#1140);
#1014=AXIS2_PLACEMENT_3D('',#1351,#1141,#1142);
#1015=AXIS2_PLACEMENT_3D('',#1353,#1143,#1144);
#1016=AXIS2_PLACEMENT_3D('',#1355,#1145,#1146);
#1017=AXIS2_PLACEMENT_3D('',#1356,#1147,#1148);
#1018=AXIS2_PLACEMENT_3D('',#1358,#1149,#1150);
#1019=AXIS2_PLACEMENT_3D('',#1360,#1151,#1152);
#1020=AXIS2_PLACEMENT_3D('',#1361,#1153,#1154);
#1021=AXIS2_PLACEMENT_3D('',#1363,#1155,#1156);
#1022=AXIS2_PLACEMENT_3D('',#1365,#1157,#1158);
#1023=AXIS2_PLACEMENT_3D('',#1366,#1159,#1160);
#1024=AXIS2_PLACEMENT_3D('',#1369,#1161,#1162);
#1025=AXIS2_PLACEMENT_3D('',#1371,#1163,#1164);
#1026=AXIS2_PLACEMENT_3D('',#1373,#1165,#1166);
#1027=AXIS2_PLACEMENT_3D('',#1374,#1167,#1168);
#1028=AXIS2_PLACEMENT_3D('',#1375,#1169,#1170);
#1029=AXIS2_PLACEMENT_3D('',#1378,#1171,#1172);
#1030=AXIS2_PLACEMENT_3D('',#1380,#1173,#1174);
#1031=AXIS2_PLACEMENT_3D('',#1382,#1175,#1176);
#1032=AXIS2_PLACEMENT_3D('',#1383,#1177,#1178);
#1033=AXIS2_PLACEMENT_3D('',#1391,#1183,#1184);
#1034=AXIS2_PLACEMENT_3D('',#1399,#1189,#1190);
#1035=AXIS2_PLACEMENT_3D('',#1400,#1191,#1192);
#1036=AXIS2_PLACEMENT_3D('',#1402,#1193,#1194);
#1037=AXIS2_PLACEMENT_3D('',#1405,#1196,#1197);
#1038=AXIS2_PLACEMENT_3D('',#1410,#1201,#1202);
#1039=AXIS2_PLACEMENT_3D('',#1418,#1207,#1208);
#1040=AXIS2_PLACEMENT_3D('',#1419,#1209,#1210);
#1041=AXIS2_PLACEMENT_3D('',#1420,#1211,#1212);
#1042=AXIS2_PLACEMENT_3D('',#1422,#1213,#1214);
#1043=AXIS2_PLACEMENT_3D('',#1424,#1215,#1216);
#1044=AXIS2_PLACEMENT_3D('',#1426,#1217,#1218);
#1045=AXIS2_PLACEMENT_3D('',#1427,#1219,#1220);
#1046=AXIS2_PLACEMENT_3D('',#1429,#1221,#1222);
#1047=AXIS2_PLACEMENT_3D('',#1431,#1223,#1224);
#1048=AXIS2_PLACEMENT_3D('',#1433,#1225,#1226);
#1049=AXIS2_PLACEMENT_3D('',#1434,#1227,#1228);
#1050=AXIS2_PLACEMENT_3D('',#1435,#1229,#1230);
#1051=AXIS2_PLACEMENT_3D('',#1436,#1231,#1232);
#1052=AXIS2_PLACEMENT_3D('',#1438,#1233,#1234);
#1053=AXIS2_PLACEMENT_3D('',#1440,#1235,#1236);
#1054=AXIS2_PLACEMENT_3D('',#1441,#1237,#1238);
#1055=AXIS2_PLACEMENT_3D('',#1443,#1239,#1240);
#1056=AXIS2_PLACEMENT_3D('',#1445,#1241,#1242);
#1057=AXIS2_PLACEMENT_3D('',#1447,#1243,#1244);
#1058=AXIS2_PLACEMENT_3D('',#1449,#1245,#1246);
#1059=AXIS2_PLACEMENT_3D('',#1451,#1247,#1248);
#1060=AXIS2_PLACEMENT_3D('',#1453,#1249,#1250);
#1061=AXIS2_PLACEMENT_3D('',#1455,#1251,#1252);
#1062=AXIS2_PLACEMENT_3D('',#1457,#1253,#1254);
#1063=AXIS2_PLACEMENT_3D('',#1458,#1255,#1256);
#1064=AXIS2_PLACEMENT_3D('',#1459,#1257,#1258);
#1065=AXIS2_PLACEMENT_3D('',#1461,#1259,#1260);
#1066=AXIS2_PLACEMENT_3D('',#1462,#1261,#1262);
#1067=AXIS2_PLACEMENT_3D('',#1463,#1263,#1264);
#1068=AXIS2_PLACEMENT_3D('',#1464,#1265,#1266);
#1069=AXIS2_PLACEMENT_3D('',#1465,#1267,#1268);
#1070=AXIS2_PLACEMENT_3D('',#1466,#1269,#1270);
#1071=AXIS2_PLACEMENT_3D('',#1467,#1271,#1272);
#1072=AXIS2_PLACEMENT_3D('',#1468,#1273,#1274);
#1073=AXIS2_PLACEMENT_3D('',#1470,#1275,#1276);
#1074=AXIS2_PLACEMENT_3D('',#1471,#1277,#1278);
#1075=AXIS2_PLACEMENT_3D('',#1472,#1279,#1280);
#1076=AXIS2_PLACEMENT_3D('',#1474,#1281,#1282);
#1077=AXIS2_PLACEMENT_3D('',#1475,#1283,#1284);
#1078=AXIS2_PLACEMENT_3D('',#1476,#1285,#1286);
#1079=AXIS2_PLACEMENT_3D('',#1477,#1287,#1288);
#1080=AXIS2_PLACEMENT_3D('',#1478,#1289,#1290);
#1081=AXIS2_PLACEMENT_3D('',#1479,#1291,#1292);
#1082=AXIS2_PLACEMENT_3D('',#1481,#1293,#1294);
#1083=AXIS2_PLACEMENT_3D('',#1482,#1295,#1296);
#1084=AXIS2_PLACEMENT_3D('',#1483,#1297,#1298);
#1085=AXIS2_PLACEMENT_3D('',#1484,#1299,#1300);
#1086=AXIS2_PLACEMENT_3D('',#1485,#1301,#1302);
#1087=AXIS2_PLACEMENT_3D('',#1486,#1303,#1304);
#1088=AXIS2_PLACEMENT_3D('',#1487,#1305,#1306);
#1089=AXIS2_PLACEMENT_3D('',#1488,#1307,#1308);
#1090=AXIS2_PLACEMENT_3D('',#1489,#1309,#1310);
#1091=DIRECTION('',(0.,0.,1.));
#1092=DIRECTION('',(1.,0.,0.));
#1093=DIRECTION('',(-1.710569414459E-49,1.,-3.08148791101957E-33));
#1094=DIRECTION('',(0.,3.08148791101957E-33,1.));
#1095=DIRECTION('',(1.92192993328158E-19,1.,6.76749166791877E-18));
#1096=DIRECTION('',(0.,0.,-1.));
#1097=DIRECTION('',(1.92192993328158E-19,1.,6.76749166791877E-18));
#1098=DIRECTION('',(0.,-6.76749166791877E-18,1.));
#1099=DIRECTION('',(-1.92192993328158E-19,-1.,-6.76749166791877E-18));
#1100=DIRECTION('',(0.,0.,-1.));
#1101=DIRECTION('',(-1.92192993328158E-19,-1.,-6.76749166791877E-18));
#1102=DIRECTION('',(0.,0.,-1.));
#1103=DIRECTION('',(1.92192993328158E-19,1.,6.76749166791877E-18));
#1104=DIRECTION('',(0.,-6.76749166791877E-18,1.));
#1105=DIRECTION('',(0.,-1.,0.));
#1106=DIRECTION('',(-0.027656961005235,0.,-0.999617473090559));
#1107=DIRECTION('',(0.,-1.,0.));
#1108=DIRECTION('',(0.0276569610052135,0.,0.99961747309056));
#1109=DIRECTION('',(0.,-1.,0.));
#1110=DIRECTION('',(0.,0.,-1.));
#1111=DIRECTION('',(0.,1.,0.));
#1112=DIRECTION('',(0.,0.,1.));
#1113=DIRECTION('',(-3.6933225416641E-17,1.,1.23023282473595E-17));
#1114=DIRECTION('',(-1.,-3.97070929311666E-17,0.));
#1115=DIRECTION('',(0.,-1.,0.));
#1116=DIRECTION('',(0.,0.,-1.));
#1117=DIRECTION('',(6.65599566195854E-17,-1.,1.9487792846075E-18));
#1118=DIRECTION('',(1.,6.65599566195854E-17,0.));
#1119=DIRECTION('',(-3.6933225416641E-17,1.,1.23023282473595E-17));
#1120=DIRECTION('',(-1.,-5.1975798966215E-17,0.));
#1121=DIRECTION('',(3.6933225416641E-17,-1.,-1.23023282473595E-17));
#1122=DIRECTION('',(-1.,-4.53795347784761E-17,0.));
#1123=DIRECTION('',(-6.65599566195854E-17,1.,-1.9487792846075E-18));
#1124=DIRECTION('',(-1.,-6.65599566195854E-17,0.));
#1125=DIRECTION('',(3.6933225416641E-17,-1.,-1.23023282473595E-17));
#1126=DIRECTION('',(-1.,0.,0.));
#1127=DIRECTION('',(0.,-1.,0.));
#1128=DIRECTION('',(0.,0.,1.));
#1129=DIRECTION('',(0.,1.,0.));
#1130=DIRECTION('',(0.,0.,1.));
#1131=DIRECTION('',(0.,1.,0.));
#1132=DIRECTION('',(0.,0.,1.));
#1133=DIRECTION('',(0.,-1.,0.));
#1134=DIRECTION('',(0.,0.,1.));
#1135=DIRECTION('',(1.710569414459E-49,-1.,3.08148791101957E-33));
#1136=DIRECTION('',(0.,-3.08148791101957E-33,-1.));
#1137=DIRECTION('',(0.,-1.,0.));
#1138=DIRECTION('',(0.,0.,-1.));
#1139=DIRECTION('',(0.,1.,0.));
#1140=DIRECTION('',(0.,0.,1.));
#1141=DIRECTION('',(0.,1.,0.));
#1142=DIRECTION('',(0.,0.,1.));
#1143=DIRECTION('',(0.,-1.,0.));
#1144=DIRECTION('',(0.,0.,1.));
#1145=DIRECTION('',(0.,-1.,0.));
#1146=DIRECTION('',(0.,0.,-1.));
#1147=DIRECTION('',(0.,1.,0.));
#1148=DIRECTION('',(0.,0.,-1.));
#1149=DIRECTION('',(-3.6933225416641E-17,1.,1.23023282473595E-17));
#1150=DIRECTION('',(-1.,-3.69523330453676E-17,0.));
#1151=DIRECTION('',(-6.65599566195854E-17,1.,-1.9487792846075E-18));
#1152=DIRECTION('',(-1.,-6.65599566195854E-17,0.));
#1153=DIRECTION('',(-3.6933225416641E-17,1.,1.23023282473595E-17));
#1154=DIRECTION('',(-1.,0.,0.));
#1155=DIRECTION('',(-3.6933225416641E-17,1.,1.23023282473595E-17));
#1156=DIRECTION('',(-1.,0.,0.));
#1157=DIRECTION('',(0.,0.,1.));
#1158=DIRECTION('',(1.,0.,0.));
#1159=DIRECTION('',(0.,0.,1.));
#1160=DIRECTION('',(1.,0.,0.));
#1161=DIRECTION('',(-0.127629918083853,-0.991821861026419,-1.49032638842822E-19));
#1162=DIRECTION('',(0.991565520297985,-0.127596931569382,-0.022734159546025));
#1163=DIRECTION('',(0.,0.,1.));
#1164=DIRECTION('',(1.,0.,0.));
#1165=DIRECTION('',(-0.436106931139258,-0.899894851975662,-1.211963045834E-16));
#1166=DIRECTION('',(0.899304030600688,-0.435820607358067,-0.0362306327215305));
#1167=DIRECTION('',(0.,0.,1.));
#1168=DIRECTION('',(1.,0.,0.));
#1169=DIRECTION('',(0.,0.,-1.));
#1170=DIRECTION('',(1.,0.,0.));
#1171=DIRECTION('',(0.127629918083561,-0.991821861026457,0.));
#1172=DIRECTION('',(-0.991565520298023,-0.12759693156909,0.0227341595460376));
#1173=DIRECTION('',(0.,0.,-1.));
#1174=DIRECTION('',(1.,0.,0.));
#1175=DIRECTION('',(0.436106931139297,-0.899894851975643,-9.61341057961334E-16));
#1176=DIRECTION('',(-0.89930403060067,-0.435820607358107,0.0362306327215076));
#1177=DIRECTION('',(0.,0.,1.));
#1178=DIRECTION('',(1.,0.,0.));
#1179=DIRECTION('',(1.,0.,0.));
#1180=DIRECTION('',(0.,-1.,0.));
#1181=DIRECTION('',(0.,-1.,0.));
#1182=DIRECTION('',(-0.707198658456387,0.707014891977168,0.));
#1183=DIRECTION('',(0.,0.,1.));
#1184=DIRECTION('',(1.,0.,0.));
#1185=DIRECTION('',(-1.,0.,0.));
#1186=DIRECTION('',(-0.70719865845639,0.707014891977165,-9.05370569127456E-16));
#1187=DIRECTION('',(0.,1.,0.));
#1188=DIRECTION('',(0.,-1.,0.));
#1189=DIRECTION('',(0.,-1.,0.));
#1190=DIRECTION('',(0.,0.,-1.));
#1191=DIRECTION('',(0.,-1.,0.));
#1192=DIRECTION('',(1.77635683940025E-15,0.,1.));
#1193=DIRECTION('',(0.,1.,0.));
#1194=DIRECTION('',(0.,0.,-1.));
#1195=DIRECTION('',(0.707198658456389,0.707014891977166,0.));
#1196=DIRECTION('',(0.,0.,-1.));
#1197=DIRECTION('',(-1.,0.,0.));
#1198=DIRECTION('',(-1.,0.,0.));
#1199=DIRECTION('',(0.,-1.,0.));
#1200=DIRECTION('',(0.,-1.,0.));
#1201=DIRECTION('',(0.,0.,-1.));
#1202=DIRECTION('',(-1.,0.,0.));
#1203=DIRECTION('',(1.,0.,0.));
#1204=DIRECTION('',(0.707198658456392,0.707014891977163,1.00596729903052E-14));
#1205=DIRECTION('',(0.,1.,0.));
#1206=DIRECTION('',(0.,-1.,0.));
#1207=DIRECTION('',(0.,1.,0.));
#1208=DIRECTION('',(0.,0.,1.));
#1209=DIRECTION('',(0.,-1.,0.));
#1210=DIRECTION('',(0.,0.,1.));
#1211=DIRECTION('',(0.,-1.,0.));
#1212=DIRECTION('',(0.,0.,1.));
#1213=DIRECTION('',(0.,-1.,0.));
#1214=DIRECTION('',(0.,0.,1.));
#1215=DIRECTION('',(0.,-1.,0.));
#1216=DIRECTION('',(0.,0.,1.));
#1217=DIRECTION('',(0.,1.,0.));
#1218=DIRECTION('',(0.,0.,1.));
#1219=DIRECTION('',(0.,-1.,0.));
#1220=DIRECTION('',(0.,0.,1.));
#1221=DIRECTION('',(0.,-1.,0.));
#1222=DIRECTION('',(0.,0.,1.));
#1223=DIRECTION('',(0.,-1.,0.));
#1224=DIRECTION('',(0.,0.,1.));
#1225=DIRECTION('',(0.,-1.,0.));
#1226=DIRECTION('',(8.88178419700125E-16,0.,1.));
#1227=DIRECTION('',(0.,1.,0.));
#1228=DIRECTION('',(0.,0.,-1.));
#1229=DIRECTION('',(0.,-1.,0.));
#1230=DIRECTION('',(0.,0.,-1.));
#1231=DIRECTION('',(-3.6933225416641E-17,1.,1.23023282473595E-17));
#1232=DIRECTION('',(-1.,0.,0.));
#1233=DIRECTION('',(0.,-1.,0.));
#1234=DIRECTION('',(0.,0.,1.));
#1235=DIRECTION('',(0.,-1.,0.));
#1236=DIRECTION('',(0.,0.,-1.));
#1237=DIRECTION('',(0.,1.,0.));
#1238=DIRECTION('',(0.,0.,1.));
#1239=DIRECTION('',(0.,1.,0.));
#1240=DIRECTION('',(0.,0.,1.));
#1241=DIRECTION('',(0.,1.,0.));
#1242=DIRECTION('',(0.,0.,1.));
#1243=DIRECTION('',(0.,1.,0.));
#1244=DIRECTION('',(0.,0.,1.));
#1245=DIRECTION('',(0.,1.,0.));
#1246=DIRECTION('',(0.,0.,1.));
#1247=DIRECTION('',(0.,1.,0.));
#1248=DIRECTION('',(0.,0.,1.));
#1249=DIRECTION('',(0.,1.,0.));
#1250=DIRECTION('',(0.,0.,1.));
#1251=DIRECTION('',(0.,-1.,0.));
#1252=DIRECTION('',(0.,0.,1.));
#1253=DIRECTION('',(-1.92192993328158E-19,-1.,-6.76749166791877E-18));
#1254=DIRECTION('',(0.,0.,-1.));
#1255=DIRECTION('',(-1.92192993328158E-19,-1.,-6.76749166791877E-18));
#1256=DIRECTION('',(0.,0.,-1.));
#1257=DIRECTION('',(1.92192993328158E-19,1.,6.76749166791877E-18));
#1258=DIRECTION('',(-0.0276560972364008,0.,-0.999617496988549));
#1259=DIRECTION('',(0.,-1.,0.));
#1260=DIRECTION('',(0.,0.,-1.));
#1261=DIRECTION('',(-3.6933225416641E-17,1.,1.23023282473595E-17));
#1262=DIRECTION('',(-1.,0.,0.));
#1263=DIRECTION('',(-3.6933225416641E-17,1.,1.23023282473595E-17));
#1264=DIRECTION('',(-1.,0.,0.));
#1265=DIRECTION('',(0.,1.,0.));
#1266=DIRECTION('',(0.,0.,1.));
#1267=DIRECTION('',(0.,1.,0.));
#1268=DIRECTION('',(0.,0.,1.));
#1269=DIRECTION('',(0.,-1.,0.));
#1270=DIRECTION('',(0.,0.,-1.));
#1271=DIRECTION('',(0.,1.,0.));
#1272=DIRECTION('',(0.,0.,1.));
#1273=DIRECTION('',(0.,-1.,0.));
#1274=DIRECTION('',(0.,0.,-1.));
#1275=DIRECTION('',(-3.6933225416641E-17,1.,1.23023282473595E-17));
#1276=DIRECTION('',(-1.,0.,0.));
#1277=DIRECTION('',(0.,-1.,0.));
#1278=DIRECTION('',(0.,0.,-1.));
#1279=DIRECTION('',(0.,1.,0.));
#1280=DIRECTION('',(0.,0.,1.));
#1281=DIRECTION('',(0.,1.,0.));
#1282=DIRECTION('',(0.,0.,1.));
#1283=DIRECTION('',(-3.6933225416641E-17,1.,1.23023282473595E-17));
#1284=DIRECTION('',(-1.,0.,0.));
#1285=DIRECTION('',(0.,-1.,0.));
#1286=DIRECTION('',(0.,0.,-1.));
#1287=DIRECTION('',(0.,-1.,0.));
#1288=DIRECTION('',(8.88178419700125E-16,0.,1.));
#1289=DIRECTION('',(0.,1.,0.));
#1290=DIRECTION('',(0.,0.,1.));
#1291=DIRECTION('',(0.,-1.,0.));
#1292=DIRECTION('',(0.,-4.96699635211684E-17,1.));
#1293=DIRECTION('',(0.,1.,0.));
#1294=DIRECTION('',(0.,0.,1.));
#1295=DIRECTION('',(0.,1.,0.));
#1296=DIRECTION('',(0.,0.,1.));
#1297=DIRECTION('',(0.,1.,0.));
#1298=DIRECTION('',(0.,0.,1.));
#1299=DIRECTION('',(0.,1.,0.));
#1300=DIRECTION('',(0.,0.,1.));
#1301=DIRECTION('',(0.,1.,0.));
#1302=DIRECTION('',(0.,0.,1.));
#1303=DIRECTION('',(0.,1.,0.));
#1304=DIRECTION('',(0.,0.,1.));
#1305=DIRECTION('',(0.,1.,0.));
#1306=DIRECTION('',(0.,0.,1.));
#1307=DIRECTION('',(0.,1.,0.));
#1308=DIRECTION('',(0.,0.,1.));
#1309=DIRECTION('',(3.03422561508873E-17,-1.,-8.39469486087172E-19));
#1310=DIRECTION('',(1.,3.03422561508873E-17,0.));
#1311=CARTESIAN_POINT('',(0.,0.,0.));
#1312=CARTESIAN_POINT('',(-6.64798057499538E-18,0.2584252,-5.31974534553762E-17));
#1313=CARTESIAN_POINT('',(4.80482483320395E-21,0.2584252,-5.5242685248203E-17));
#1314=CARTESIAN_POINT('',(4.80482483320395E-21,0.2584252,-0.4625));
#1315=CARTESIAN_POINT('',(0.562284842056059,0.4334252,-0.0155565546954755));
#1316=CARTESIAN_POINT('',(3.84385986656316E-20,0.4334252,-5.40583742063172E-17));
#1317=CARTESIAN_POINT('',(3.84385986656316E-20,0.4334252,-0.4625));
#1318=CARTESIAN_POINT('',(3.84385986656316E-20,0.4334252,-5.40583742063172E-17));
#1319=CARTESIAN_POINT('',(3.84385986656316E-20,0.4334252,-0.5625));
#1320=CARTESIAN_POINT('',(0.749713122741411,0.2734252,-0.0207420729273007));
#1321=CARTESIAN_POINT('',(4.89325050449026E-7,0.2734252,-1.35379996494378E-8));
#1322=CARTESIAN_POINT('',(-0.015667179084421,0.2734252,-0.566283312044013));
#1323=CARTESIAN_POINT('',(0.0156671790844211,0.2734252,0.566283312044013));
#1324=CARTESIAN_POINT('',(-4.8932503815571E-7,0.2734252,1.35379989835499E-8));
#1325=CARTESIAN_POINT('',(0.,0.2734252,-5.54118725399009E-17));
#1326=CARTESIAN_POINT('',(0.,0.2734252,-0.75));
#1327=CARTESIAN_POINT('',(0.75,0.0241982008637461,-5.54118725399009E-17));
#1328=CARTESIAN_POINT('',(3.44383258262536E-18,0.0241982008637461,-6.84988949181606E-17));
#1329=CARTESIAN_POINT('',(-0.7525,0.0241982008637461,-6.84988949181606E-17));
#1330=CARTESIAN_POINT('',(0.,0.0241982008637461,-5.54118725399009E-17));
#1331=CARTESIAN_POINT('',(0.,0.0241982008637461,-0.75));
#1332=CARTESIAN_POINT('',(0.284795964521408,0.296,-0.592064404091583));
#1333=CARTESIAN_POINT('',(-6.59468453352249E-18,0.296,-6.51550999669635E-17));
#1334=CARTESIAN_POINT('',(-0.657,0.296,-6.51550999669635E-17));
#1335=CARTESIAN_POINT('',(-6.59468453352249E-18,0.296,-6.51550999669635E-17));
#1336=CARTESIAN_POINT('',(-0.7525,0.296,-6.51550999669635E-17));
#1337=CARTESIAN_POINT('',(0.284795964521409,0.449,-0.592064404091582));
#1338=CARTESIAN_POINT('',(-1.22454680222686E-17,0.449,-6.32728437451175E-17));
#1339=CARTESIAN_POINT('',(-0.657,0.449,-6.32728437451175E-17));
#1340=CARTESIAN_POINT('',(0.,0.449,0.));
#1341=CARTESIAN_POINT('',(0.,0.449,0.7075));
#1342=CARTESIAN_POINT('',(-0.7075,0.409,0.));
#1343=CARTESIAN_POINT('',(0.,0.409,0.));
#1344=CARTESIAN_POINT('',(0.,0.409,0.7675));
#1345=CARTESIAN_POINT('',(0.,0.409,0.));
#1346=CARTESIAN_POINT('',(0.,0.409,0.7075));
#1347=CARTESIAN_POINT('',(-6.64798057499538E-18,0.16,-5.31974534553762E-17));
#1348=CARTESIAN_POINT('',(0.,0.16,-5.54118725399009E-17));
#1349=CARTESIAN_POINT('',(0.,0.16,-0.4625));
#1350=CARTESIAN_POINT('',(-0.825,0.449,0.));
#1351=CARTESIAN_POINT('',(0.,0.449,0.));
#1352=CARTESIAN_POINT('',(0.,0.449,0.825));
#1353=CARTESIAN_POINT('',(0.,0.449,0.));
#1354=CARTESIAN_POINT('',(0.,0.449,0.7675));
#1355=CARTESIAN_POINT('',(0.4625,0.0010000000000001,-5.54118725399009E-17));
#1356=CARTESIAN_POINT('',(0.,0.00100000000000007,-5.54118725399009E-17));
#1357=CARTESIAN_POINT('',(0.,0.00100000000000007,-0.4625));
#1358=CARTESIAN_POINT('',(4.30061696438662E-18,0.00100000000000007,-6.87842867999345E-17));
#1359=CARTESIAN_POINT('',(-0.7725,0.00100000000000004,-6.87842867999345E-17));
#1360=CARTESIAN_POINT('',(0.296933387666918,0.324,-0.617296981434908));
#1361=CARTESIAN_POINT('',(-7.62881484518844E-18,0.324,-6.48106347760374E-17));
#1362=CARTESIAN_POINT('',(-0.7725,0.324,-6.48106347760374E-17));
#1363=CARTESIAN_POINT('',(-7.62881484518844E-18,0.324,-6.48106347760374E-17));
#1364=CARTESIAN_POINT('',(-0.685,0.324,-6.48106347760374E-17));
#1365=CARTESIAN_POINT('',(1.55014163840195,1.71587362855523,-0.031));
#1366=CARTESIAN_POINT('',(1.55014163840195,1.71587362855523,0.031));
#1367=CARTESIAN_POINT('',(0.950494608085706,0.478518207088583,0.031));
#1368=CARTESIAN_POINT('',(1.37465050103654,0.352118569643921,0.031));
#1369=CARTESIAN_POINT('',(0.0225648403809312,0.526108062004214,-3.35078230472882E-16));
#1370=CARTESIAN_POINT('',(1.37465050103654,0.352118569643921,-0.031));
#1371=CARTESIAN_POINT('',(1.55014163840195,1.71587362855523,-0.031));
#1372=CARTESIAN_POINT('',(0.950494608085705,0.478518207088583,-0.031));
#1373=CARTESIAN_POINT('',(0.181023504367948,0.851419197583153,8.25743741209925E-15));
#1374=CARTESIAN_POINT('',(-1.55014163840195,1.71587362855523,-0.031));
#1375=CARTESIAN_POINT('',(-1.55014163840195,1.71587362855523,-0.031));
#1376=CARTESIAN_POINT('',(-0.950494608085706,0.478518207088583,-0.031));
#1377=CARTESIAN_POINT('',(-1.37465050103654,0.352118569643921,-0.0310000000000002));
#1378=CARTESIAN_POINT('',(-0.0225648403816047,0.526108062003722,-6.40276873515062E-17));
#1379=CARTESIAN_POINT('',(-1.37465050103654,0.352118569643921,0.0310000000000001));
#1380=CARTESIAN_POINT('',(-1.55014163840195,1.71587362855523,0.031));
#1381=CARTESIAN_POINT('',(-0.950494608085706,0.478518207088583,0.031));
#1382=CARTESIAN_POINT('',(-0.181023504367648,0.85141919758334,-1.50571778088292E-15));
#1383=CARTESIAN_POINT('',(1.55014163840195,1.71587362855523,-0.031));
#1384=CARTESIAN_POINT('',(-1.345,0.5,-0.031));
#1385=CARTESIAN_POINT('',(0.950494608085706,0.5,-0.031));
#1386=CARTESIAN_POINT('',(1.34464270347182,0.5,-0.031));
#1387=CARTESIAN_POINT('',(0.950494608085706,1.71587362855523,-0.031));
#1388=CARTESIAN_POINT('',(1.37465050103654,0.,-0.0309999999999999));
#1389=CARTESIAN_POINT('',(1.37465050103654,0.47,-0.031));
#1390=CARTESIAN_POINT('',(1.37465050103654,0.47,-0.031));
#1391=CARTESIAN_POINT('',(1.55014163840195,1.71587362855523,0.031));
#1392=CARTESIAN_POINT('',(-1.345,0.5,0.031));
#1393=CARTESIAN_POINT('',(1.34464270347182,0.5,0.031));
#1394=CARTESIAN_POINT('',(0.950494608085706,0.5,0.031));
#1395=CARTESIAN_POINT('',(1.35964660225418,0.485,0.031));
#1396=CARTESIAN_POINT('',(1.37465050103654,0.47,0.031));
#1397=CARTESIAN_POINT('',(1.37465050103654,0.,0.0310000000000001));
#1398=CARTESIAN_POINT('',(0.950494608085706,1.71587362855523,0.031));
#1399=CARTESIAN_POINT('',(0.,0.47,0.));
#1400=CARTESIAN_POINT('',(0.,0.47,0.));
#1401=CARTESIAN_POINT('',(-1.37465050103654,0.47,0.0310000000000002));
#1402=CARTESIAN_POINT('',(0.,0.5,0.));
#1403=CARTESIAN_POINT('',(-1.34464270347182,0.5,0.031));
#1404=CARTESIAN_POINT('',(-1.37465050103654,0.47,0.031));
#1405=CARTESIAN_POINT('',(-1.55014163840195,1.71587362855523,0.031));
#1406=CARTESIAN_POINT('',(-1.345,0.5,0.031));
#1407=CARTESIAN_POINT('',(-0.950494608085706,0.5,0.031));
#1408=CARTESIAN_POINT('',(-0.950494608085706,1.71587362855523,0.031));
#1409=CARTESIAN_POINT('',(-1.37465050103654,0.,0.0310000000000004));
#1410=CARTESIAN_POINT('',(-1.55014163840195,1.71587362855523,-0.031));
#1411=CARTESIAN_POINT('',(-1.345,0.5,-0.031));
#1412=CARTESIAN_POINT('',(-1.34464270347182,0.5,-0.031));
#1413=CARTESIAN_POINT('',(-0.950494608085706,0.5,-0.031));
#1414=CARTESIAN_POINT('',(-1.35964660225418,0.485,-0.0310000000000002));
#1415=CARTESIAN_POINT('',(-1.37465050103654,0.47,-0.0310000000000004));
#1416=CARTESIAN_POINT('',(-1.37465050103654,0.,-0.0310000000000009));
#1417=CARTESIAN_POINT('',(-0.950494608085706,1.71587362855523,-0.031));
#1418=CARTESIAN_POINT('',(-1.345,0.5,0.));
#1419=CARTESIAN_POINT('',(0.,0.5,0.));
#1420=CARTESIAN_POINT('',(-1.00112536677482,0.5,0.577999999999991));
#1421=CARTESIAN_POINT('',(-1.00112536677482,0.5,0.710499999999991));
#1422=CARTESIAN_POINT('',(-8.07230485540533E-15,0.5,1.156));
#1423=CARTESIAN_POINT('',(-8.07230485540533E-15,0.5,1.2885));
#1424=CARTESIAN_POINT('',(1.00112536677481,0.5,0.578000000000005));
#1425=CARTESIAN_POINT('',(1.00112536677481,0.5,0.710500000000005));
#1426=CARTESIAN_POINT('',(-1.345,0.5,0.));
#1427=CARTESIAN_POINT('',(-1.0011253667748,0.5,-0.578000000000012));
#1428=CARTESIAN_POINT('',(-1.0011253667748,0.5,-0.445500000000012));
#1429=CARTESIAN_POINT('',(1.00112536677481,0.5,-0.577999999999998));
#1430=CARTESIAN_POINT('',(1.00112536677481,0.5,-0.445499999999998));
#1431=CARTESIAN_POINT('',(0.,0.5,-1.156));
#1432=CARTESIAN_POINT('',(0.,0.5,-1.0235));
#1433=CARTESIAN_POINT('',(0.,0.5,0.));
#1434=CARTESIAN_POINT('',(0.,0.5,0.));
#1435=CARTESIAN_POINT('',(-0.6825,0.349,0.));
#1436=CARTESIAN_POINT('',(-8.55214548060446E-18,0.349,-6.45030765698535E-17));
#1437=CARTESIAN_POINT('',(-0.685,0.349,-6.45030765698535E-17));
#1438=CARTESIAN_POINT('',(0.,0.349,0.));
#1439=CARTESIAN_POINT('',(0.,0.349,0.7825));
#1440=CARTESIAN_POINT('',(-1.345,0.,0.));
#1441=CARTESIAN_POINT('',(-1.0011253667748,0.,-0.578000000000012));
#1442=CARTESIAN_POINT('',(-1.0011253667748,0.,-0.445500000000012));
#1443=CARTESIAN_POINT('',(-1.00112536677482,0.,0.577999999999991));
#1444=CARTESIAN_POINT('',(-1.00112536677482,0.,0.710499999999991));
#1445=CARTESIAN_POINT('',(-8.07230485540533E-15,0.,1.156));
#1446=CARTESIAN_POINT('',(-8.07230485540533E-15,0.,1.2885));
#1447=CARTESIAN_POINT('',(1.00112536677481,0.,0.578000000000005));
#1448=CARTESIAN_POINT('',(1.00112536677481,0.,0.710500000000005));
#1449=CARTESIAN_POINT('',(1.00112536677481,0.,-0.577999999999998));
#1450=CARTESIAN_POINT('',(1.00112536677481,0.,-0.445499999999998));
#1451=CARTESIAN_POINT('',(0.,0.,-1.156));
#1452=CARTESIAN_POINT('',(0.,0.,-1.0235));
#1453=CARTESIAN_POINT('',(0.,0.,0.));
#1454=CARTESIAN_POINT('',(0.,0.,0.7825));
#1455=CARTESIAN_POINT('',(0.,0.,0.));
#1456=CARTESIAN_POINT('',(0.,0.,1.345));
#1457=CARTESIAN_POINT('',(-4.80482483320395E-21,0.2084252,-5.55810598315989E-17));
#1458=CARTESIAN_POINT('',(-4.80482483320395E-21,0.2084252,-5.55810598315989E-17));
#1459=CARTESIAN_POINT('',(8.45649170643894E-21,0.2774252,-5.51141029065125E-17));
#1460=CARTESIAN_POINT('',(-0.0155565546954755,0.2774252,-0.562284842056059));
#1461=CARTESIAN_POINT('',(0.,0.00100000000000007,-5.54118725399009E-17));
#1462=CARTESIAN_POINT('',(-1.22454680222686E-17,0.449,-6.32728437451175E-17));
#1463=CARTESIAN_POINT('',(-1.22454680222686E-17,0.449,-6.32728437451175E-17));
#1464=CARTESIAN_POINT('',(0.,0.,0.));
#1465=CARTESIAN_POINT('',(0.,0.,0.));
#1466=CARTESIAN_POINT('',(0.,0.00100000000000007,-5.54118725399009E-17));
#1467=CARTESIAN_POINT('',(0.,0.,0.));
#1468=CARTESIAN_POINT('',(0.,0.474,0.));
#1469=CARTESIAN_POINT('',(0.,0.474,-0.825));
#1470=CARTESIAN_POINT('',(-1.22454680222686E-17,0.449,-6.32728437451175E-17));
#1471=CARTESIAN_POINT('',(0.,0.449,0.));
#1472=CARTESIAN_POINT('',(0.,0.449,0.));
#1473=CARTESIAN_POINT('',(0.,0.449,0.951));
#1474=CARTESIAN_POINT('',(0.,0.,0.));
#1475=CARTESIAN_POINT('',(-1.22454680222686E-17,0.449,-6.32728437451175E-17));
#1476=CARTESIAN_POINT('',(0.,0.47,0.));
#1477=CARTESIAN_POINT('',(0.,0.47,0.));
#1478=CARTESIAN_POINT('',(0.,0.,0.));
#1479=CARTESIAN_POINT('',(0.,0.03,0.));
#1480=CARTESIAN_POINT('',(0.,0.0299999999999999,1.375));
#1481=CARTESIAN_POINT('',(-1.0011253667748,0.,-0.578000000000012));
#1482=CARTESIAN_POINT('',(-1.00112536677482,0.,0.577999999999991));
#1483=CARTESIAN_POINT('',(-8.07230485540533E-15,0.,1.156));
#1484=CARTESIAN_POINT('',(1.00112536677481,0.,0.578000000000005));
#1485=CARTESIAN_POINT('',(1.00112536677481,0.,-0.577999999999998));
#1486=CARTESIAN_POINT('',(0.,0.,-1.156));
#1487=CARTESIAN_POINT('',(0.,0.,0.));
#1488=CARTESIAN_POINT('',(0.,0.0299999999999999,0.));
#1489=CARTESIAN_POINT('',(3.41480999208033E-17,0.2774252,-1.36592399683213E-16));
#1490=MECHANICAL_DESIGN_GEOMETRIC_PRESENTATION_REPRESENTATION('',(#611,
#612,#613,#614,#615,#616,#617,#618,#619,#620,#621,#622,#623,#624,#625,#626,
#627,#628,#629,#630,#631,#632,#633,#634,#635,#636,#637,#638,#639,#640,#641,
#642,#643,#644,#645,#646,#647,#648,#649,#650,#651,#652,#653,#654,#655,#656),
#1491);
#1491=(
GEOMETRIC_REPRESENTATION_CONTEXT(3)
GLOBAL_UNCERTAINTY_ASSIGNED_CONTEXT((#1492))
GLOBAL_UNIT_ASSIGNED_CONTEXT((#1495,#1494,#1493))
REPRESENTATION_CONTEXT('VPZL-275UCEU','TOP_LEVEL_ASSEMBLY_PART')
);
#1492=UNCERTAINTY_MEASURE_WITH_UNIT(LENGTH_MEASURE(0.000196850393700787),
#1495,'DISTANCE_ACCURACY_VALUE','Maximum Tolerance applied to model');
#1493=(
NAMED_UNIT(*)
SI_UNIT($,.STERADIAN.)
SOLID_ANGLE_UNIT()
);
#1494=(
NAMED_UNIT(*)
PLANE_ANGLE_UNIT()
SI_UNIT($,.RADIAN.)
);
#1495=(
CONVERSION_BASED_UNIT('INCH',#1497)
LENGTH_UNIT()
NAMED_UNIT(#1496)
);
#1496=DIMENSIONAL_EXPONENTS(1.,0.,0.,0.,0.,0.,0.);
#1497=LENGTH_MEASURE_WITH_UNIT(LENGTH_MEASURE(25.4),#1498);
#1498=(
LENGTH_UNIT()
NAMED_UNIT(*)
SI_UNIT(.MILLI.,.METRE.)
);
#1499=PRODUCT_DEFINITION_SHAPE('','',#1500);
#1500=PRODUCT_DEFINITION('','',#1502,#1501);
#1501=PRODUCT_DEFINITION_CONTEXT('',#1508,'design');
#1502=PRODUCT_DEFINITION_FORMATION_WITH_SPECIFIED_SOURCE('','',#1504,
 .NOT_KNOWN.);
#1503=PRODUCT_RELATED_PRODUCT_CATEGORY('','',(#1504));
#1504=PRODUCT('VPZL-275UCEU','VPZL-275UCEU','VPZL-275UCEU',(#1506));
#1505=PRODUCT_CATEGORY('','');
#1506=PRODUCT_CONTEXT('',#1508,'mechanical');
#1507=APPLICATION_PROTOCOL_DEFINITION('international standard',
'automotive_design',2010,#1508);
#1508=APPLICATION_CONTEXT(
'core data for automotive mechanical design processes');
ENDSEC;
END-ISO-10303-21;
